<?xml version="1.0" encoding="UTF-8"?>
<svg id="Layer_1" xmlns="http://www.w3.org/2000/svg" version="1.1" viewBox="0 0 1440 592">
  <!-- Generator: Adobe Illustrator 29.5.0, SVG Export Plug-In . SVG Version: 2.1.0 Build 137)  -->
  <defs>
    <style>
      .st0 {
        fill: #436b92;
      }

      .st1 {
        fill: #11406e;
      }

      .st2 {
        fill: #a3abb5;
      }
    </style>
  </defs>
  <path class="st2" d="M.46,585.89v-279.11h115.87c17.2,0,32.56,1.55,46.1,4.65,13.53,2.82,25.09,7.19,34.68,13.11,9.87,5.92,17.34,13.67,22.41,23.26,5.36,9.3,8.04,20.44,8.04,33.41,0,10.99-2.4,20.58-7.19,28.76-4.51,8.18-11.7,14.8-21.57,19.88-9.59,5.08-22.27,8.6-38.06,10.57v6.34c26.78,1.97,46.38,8.74,58.78,20.3,12.69,11.28,19.03,26.5,19.03,45.67,0,16.07-4.23,29.6-12.69,40.6-8.18,10.71-20.58,18.89-37.21,24.53-16.63,5.36-37.22,8.03-61.74,8.03H.46ZM58.4,536.83h67.66c18.04,0,31.44-2.68,40.18-8.04,8.74-5.64,13.11-14.24,13.11-25.8,0-13.25-5.5-23.12-16.49-29.6-10.99-6.77-27.63-10.15-49.9-10.15h-54.55v73.58ZM58.4,425.19h45.67c21.99,0,38.06-2.96,48.21-8.88,10.43-6.2,15.65-15.23,15.65-27.07s-4.65-20.44-13.96-25.8c-9.3-5.64-23.54-8.46-42.71-8.46h-52.86v70.2Z"/>
  <path class="st2" d="M286.18,585.89v-222.02h50.33l.42,75.7h8.04c2.26-18.89,6.06-34.25,11.42-46.1,5.64-11.84,13.39-20.58,23.26-26.22,9.87-5.64,22.13-8.46,36.79-8.46,2.54,0,5.21.14,8.04.42,3.1,0,6.62.42,10.57,1.27l-2.54,64.7c-4.23-1.97-8.88-3.38-13.96-4.23-5.08-.85-9.59-1.27-13.53-1.27-11,0-20.44,2.54-28.33,7.61-7.89,5.07-14.38,12.4-19.45,21.99-4.79,9.3-8.04,20.72-9.73,34.25v102.34h-61.32Z"/>
  <path class="st2" d="M518.26,591.81c-12.4,0-23.4-2.4-32.99-7.19-9.59-5.07-17.06-12.26-22.41-21.57-5.36-9.3-8.03-20.86-8.03-34.68,0-12.12,2.25-22.27,6.77-30.45,4.79-8.18,11.7-14.8,20.72-19.88,9.02-5.07,20.16-9.3,33.41-12.69,13.25-3.38,28.33-6.34,45.25-8.88,9.02-1.41,16.35-2.68,21.99-3.81,5.92-1.41,10.29-3.52,13.11-6.34,2.82-3.1,4.23-7.47,4.23-13.11,0-7.89-2.82-14.66-8.46-20.3s-14.52-8.46-26.64-8.46c-8.18,0-15.79,1.41-22.84,4.23-6.77,2.82-12.69,7.05-17.76,12.69-4.79,5.64-8.32,12.83-10.57,21.57l-53.71-16.49c3.38-11.56,8.18-21.57,14.38-30.03,6.48-8.46,14.24-15.51,23.26-21.14,9.02-5.92,19.31-10.29,30.87-13.11,11.56-2.82,24.11-4.23,37.64-4.23,21.71,0,39.33,3.52,52.86,10.57,13.81,6.77,24.11,17.48,30.87,32.14,6.77,14.38,10.15,32.99,10.15,55.82v38.06c0,9.87.14,19.88.42,30.02.56,10.15,1.13,20.44,1.69,30.87.85,10.15,1.69,20.3,2.54,30.45h-53.71c-1.13-7.05-2.26-15.08-3.38-24.1-.85-9.3-1.55-18.61-2.11-27.91h-7.61c-3.95,10.71-9.59,20.44-16.92,29.18-7.33,8.74-16.35,15.79-27.07,21.15-10.43,5.07-22.41,7.61-35.95,7.61ZM544.06,547.83c5.36,0,10.71-.99,16.07-2.96,5.64-1.97,10.99-4.65,16.07-8.03,5.36-3.66,10.15-8.18,14.38-13.53,4.51-5.36,8.17-11.42,10.99-18.19l-.85-35.52,9.73,2.11c-5.08,3.67-11,6.63-17.76,8.88-6.77,1.97-13.82,3.52-21.15,4.65-7.05,1.13-14.1,2.4-21.15,3.81-7.05,1.41-13.39,3.24-19.03,5.5-5.36,2.26-9.73,5.36-13.11,9.3-3.1,3.67-4.65,8.88-4.65,15.65,0,8.74,2.82,15.65,8.46,20.72,5.64,5.08,12.97,7.61,21.99,7.61Z"/>
  <path class="st2" d="M713.62,585.89v-222.02h49.9l-.42,66.39h8.46c3.67-16.07,8.88-29.46,15.65-40.17,6.77-10.71,15.22-18.75,25.37-24.11,10.43-5.36,22.7-8.04,36.79-8.04,25.66,0,45.11,9.02,58.36,27.07,13.53,18.04,20.3,46.38,20.3,85v115.87h-61.32v-109.11c0-23.68-3.52-40.88-10.57-51.59-6.77-10.99-16.78-16.49-30.03-16.49-11.28,0-20.72,3.52-28.33,10.57-7.61,7.05-13.39,16.35-17.34,27.91-3.67,11.28-5.64,23.96-5.92,38.06v100.65h-60.9Z"/>
  <path class="st2" d="M1339.31,591.81c-14.94,0-28.47-1.41-40.6-4.23-12.12-2.82-22.55-6.91-31.29-12.26s-15.79-11.7-21.15-19.03c-5.35-7.61-8.88-16.07-10.57-25.37l46.52-19.03c1.13,6.2,4.23,11.98,9.3,17.34,5.08,5.36,11.84,9.73,20.3,13.11,8.74,3.1,19.17,4.65,31.3,4.65,12.97,0,22.97-1.83,30.02-5.5,7.05-3.95,10.57-9.45,10.57-16.49,0-5.36-1.97-9.59-5.92-12.69-3.94-3.1-9.72-5.78-17.33-8.04-7.62-2.25-16.78-4.37-27.49-6.34-10.43-2.54-21.15-5.22-32.14-8.04-10.72-2.82-20.73-6.77-30.03-11.84-9.02-5.07-16.49-11.7-22.41-19.88-5.64-8.46-8.46-19.17-8.46-32.14s3.66-25.37,10.99-35.52c7.33-10.15,18.05-18.04,32.14-23.68,14.1-5.92,31.3-8.88,51.6-8.88,18.32,0,34.39,2.54,48.21,7.61,13.81,4.79,25.09,11.84,33.83,21.14,9.02,9.02,15.08,19.88,18.18,32.56l-49.47,16.49c-1.13-6.77-3.95-12.69-8.46-17.76-4.23-5.07-10.01-8.88-17.34-11.42-7.05-2.54-15.37-3.81-24.95-3.81-12.12,0-21.57,1.97-28.34,5.92-6.48,3.95-9.72,9.16-9.72,15.65,0,5.36,2.11,9.73,6.34,13.11,4.51,3.38,10.71,6.2,18.61,8.46,7.89,1.97,17.2,4.09,27.91,6.34,11.28,2.26,22.27,4.93,32.99,8.04,10.71,2.82,20.29,6.62,28.75,11.42,8.74,4.79,15.65,11.14,20.72,19.03,5.08,7.89,7.62,18.04,7.62,30.45,0,14.66-3.95,27.35-11.84,38.06-7.9,10.43-19.32,18.47-34.26,24.1-14.94,5.64-32.98,8.46-54.13,8.46Z"/>
  <path class="st1" d="M20.79,229.82v-34.33h56.35c10.96,0,20.06-2.35,27.3-7.04,7.24-4.89,12.72-11.93,16.44-21.13s5.58-20.44,5.58-33.74c0-10.95-1.17-20.34-3.52-28.17-2.35-8.02-5.87-14.57-10.57-19.66-4.5-5.09-10.27-8.9-17.32-11.44-6.85-2.54-14.97-3.81-24.36-3.81H20.79v-34.33h48.43c23.48,0,42.66,3.81,57.53,11.44,14.87,7.63,25.83,18.58,32.87,32.86,7.04,14.08,10.57,31,10.57,50.76,0,14.87-1.76,27.78-5.28,38.73-3.52,10.95-8.32,20.25-14.38,27.88-5.87,7.63-12.72,13.79-20.54,18.49-7.83,4.7-16.14,8.12-24.95,10.27-8.81,2.15-17.71,3.23-26.71,3.23H20.79ZM.54,229.82V36.17h42.27v193.66H.54Z"/>
  <path class="st1" d="M275.61,233.93c-12.72,0-24.07-1.76-34.05-5.28-9.78-3.52-18.1-8.61-24.95-15.26-6.85-6.65-12.13-14.87-15.85-24.65-3.52-9.78-5.28-20.83-5.28-33.16s1.66-23.28,4.99-33.45c3.52-10.37,8.61-19.27,15.26-26.7,6.65-7.63,14.77-13.5,24.36-17.61,9.59-4.11,20.45-6.16,32.58-6.16s22.21,1.96,31.41,5.87c9.2,3.72,16.83,9.39,22.89,17.02,6.26,7.63,10.76,17.02,13.5,28.17,2.94,10.95,4.01,23.57,3.23,37.85l-120.93,1.17v-23.18l96.57-.88-14.97,11.74c1.37-10.37.68-18.88-2.05-25.53-2.74-6.65-6.75-11.54-12.03-14.67-5.09-3.13-10.76-4.69-17.02-4.69-7.43,0-13.99,1.96-19.66,5.87-5.67,3.91-10.08,9.68-13.21,17.31-3.13,7.43-4.7,16.43-4.7,27,0,16.63,3.62,28.85,10.86,36.68,7.43,7.82,17.12,11.74,29.06,11.74,5.48,0,10.08-.68,13.8-2.05,3.91-1.57,7.04-3.52,9.39-5.87,2.54-2.35,4.5-4.99,5.87-7.92,1.57-2.93,2.84-5.87,3.82-8.8l36.69,7.92c-1.76,7.24-4.4,13.79-7.92,19.66-3.33,5.67-7.83,10.66-13.5,14.97-5.67,4.11-12.52,7.24-20.55,9.39-7.83,2.35-17.02,3.52-27.59,3.52Z"/>
  <path class="st1" d="M437.9,233.93c-10.37,0-19.76-.98-28.18-2.93-8.41-1.96-15.65-4.79-21.72-8.51-6.07-3.72-10.96-8.12-14.67-13.2-3.72-5.28-6.16-11.15-7.34-17.61l32.29-13.2c.78,4.3,2.93,8.31,6.46,12.03s8.22,6.75,14.09,9.1c6.07,2.15,13.31,3.23,21.72,3.23,9,0,15.95-1.27,20.84-3.82,4.89-2.74,7.34-6.55,7.34-11.44,0-3.72-1.37-6.65-4.11-8.8-2.74-2.15-6.75-4.01-12.03-5.57-5.28-1.57-11.64-3.03-19.08-4.4-7.24-1.76-14.67-3.62-22.31-5.57-7.43-1.96-14.38-4.7-20.84-8.22-6.26-3.52-11.45-8.12-15.56-13.79-3.91-5.87-5.87-13.3-5.87-22.3s2.54-17.61,7.63-24.65c5.09-7.04,12.52-12.52,22.31-16.43,9.78-4.11,21.72-6.16,35.81-6.16,12.72,0,23.87,1.76,33.46,5.28,9.59,3.33,17.42,8.22,23.48,14.67,6.26,6.26,10.47,13.79,12.62,22.59l-34.34,11.44c-.78-4.69-2.74-8.8-5.87-12.32-2.93-3.52-6.95-6.16-12.03-7.92-4.89-1.76-10.66-2.64-17.32-2.64-8.41,0-14.97,1.37-19.67,4.11-4.5,2.74-6.75,6.36-6.75,10.86,0,3.72,1.47,6.75,4.4,9.1,3.13,2.35,7.44,4.3,12.92,5.87,5.48,1.37,11.94,2.84,19.37,4.4,7.83,1.57,15.46,3.42,22.89,5.57,7.44,1.96,14.09,4.6,19.96,7.92,6.07,3.32,10.86,7.73,14.38,13.2,3.52,5.48,5.28,12.52,5.28,21.13,0,10.17-2.74,18.98-8.22,26.41-5.48,7.24-13.4,12.81-23.77,16.72-10.37,3.91-22.89,5.87-37.57,5.87Z"/>
  <path class="st1" d="M794.17,229.82V75.78h34.63l-.29,46.07h5.87c2.54-11.15,6.16-20.44,10.86-27.88,4.7-7.43,10.57-13.01,17.61-16.72,7.24-3.72,15.75-5.58,25.54-5.58,17.81,0,31.31,6.26,40.51,18.78,9.39,12.52,14.09,32.18,14.09,58.98v80.4h-42.56v-75.7c0-16.43-2.45-28.36-7.34-35.8-4.7-7.63-11.64-11.44-20.84-11.44-7.83,0-14.38,2.45-19.67,7.34-5.28,4.89-9.29,11.35-12.03,19.37-2.54,7.82-3.91,16.63-4.11,26.41v69.83h-42.27Z"/>
  <path class="st1" d="M1040.97,233.93c-10.37,0-19.76-.98-28.17-2.93-8.42-1.96-15.66-4.79-21.72-8.51-6.07-3.72-10.96-8.12-14.68-13.2-3.72-5.28-6.16-11.15-7.34-17.61l32.28-13.2c.78,4.3,2.94,8.31,6.46,12.03s8.22,6.75,14.09,9.1c6.06,2.15,13.3,3.23,21.72,3.23,9,0,15.94-1.27,20.84-3.82,4.89-2.74,7.33-6.55,7.33-11.44,0-3.72-1.37-6.65-4.11-8.8-2.73-2.15-6.75-4.01-12.03-5.57s-11.64-3.03-19.08-4.4c-7.24-1.76-14.67-3.62-22.3-5.57-7.44-1.96-14.39-4.7-20.84-8.22-6.26-3.52-11.45-8.12-15.56-13.79-3.91-5.87-5.87-13.3-5.87-22.3s2.54-17.61,7.63-24.65c5.09-7.04,12.52-12.52,22.31-16.43,9.78-4.11,21.72-6.16,35.81-6.16,12.72,0,23.87,1.76,33.46,5.28,9.58,3.33,17.41,8.22,23.48,14.67,6.26,6.26,10.47,13.79,12.62,22.59l-34.34,11.44c-.79-4.69-2.74-8.8-5.87-12.32-2.94-3.52-6.95-6.16-12.04-7.92-4.89-1.76-10.66-2.64-17.31-2.64-8.42,0-14.97,1.37-19.67,4.11-4.5,2.74-6.75,6.36-6.75,10.86,0,3.72,1.47,6.75,4.4,9.1,3.13,2.35,7.44,4.3,12.92,5.87,5.48,1.37,11.93,2.84,19.37,4.4,7.83,1.57,15.46,3.42,22.89,5.57,7.44,1.96,14.09,4.6,19.96,7.92,6.07,3.32,10.86,7.73,14.38,13.2,3.53,5.48,5.29,12.52,5.29,21.13,0,10.17-2.74,18.98-8.22,26.41-5.48,7.24-13.4,12.81-23.78,16.72-10.37,3.91-22.89,5.87-37.57,5.87Z"/>
  <path class="st1" d="M678.95,321.57c-16.83,0-30.72-1.62-41.68-4.85-10.76-3-18.69-7.5-23.77-13.51-5.09-6-7.63-13.51-7.63-22.51,0-10.62,3.52-19.28,10.57-25.98,7.24-6.7,17.81-10.74,31.7-12.12v-6.93c-10.57,0-18.69-1.27-24.36-3.81-5.67-2.77-8.51-7.5-8.51-14.2s2.74-12.24,8.22-17.32c5.67-5.08,14.97-9.12,27.88-12.12v-6.93c-12.13-.92-21.62-5.54-28.47-13.85-6.85-8.31-10.27-19.05-10.27-32.21,0-11.54,2.74-21.82,8.22-30.82,5.48-9.24,13.6-16.51,24.36-21.82,10.96-5.54,24.36-8.31,40.21-8.31h78.07v38.1l-48.43-7.97v7.97c12.52,2.08,21.52,5.77,27,11.08,5.67,5.31,8.51,12.7,8.51,22.16s-2.64,17.78-7.92,24.94c-5.28,7.16-12.82,12.81-22.6,16.97-9.59,3.93-21.13,5.89-34.63,5.89-2.54,0-5.28-.12-8.22-.35s-7.83-.81-14.68-1.73c-3.72,3.23-6.65,6.12-8.8,8.66-1.96,2.31-2.93,4.5-2.93,6.58,0,1.62.68,3,2.05,4.16,1.57,1.15,3.52,1.96,5.87,2.43,2.54.46,5.09.69,7.63.69h44.03c3.91,0,9,.35,15.26,1.04,6.26.46,12.52,2.19,18.79,5.19,6.26,3,11.54,7.85,15.85,14.55,4.3,6.46,6.46,15.82,6.46,28.05,0,13.39-3.23,24.47-9.69,33.25-6.26,8.77-15.95,15.24-29.06,19.39-12.91,4.16-29.25,6.23-49.02,6.23ZM683.64,281.74c11.94,0,21.23-.81,27.88-2.42,6.65-1.39,11.35-3.81,14.09-7.27,2.93-3.23,4.4-7.39,4.4-12.47,0-4.62-.88-8.2-2.64-10.74-1.57-2.54-3.72-4.27-6.46-5.19-2.54-1.15-5.18-1.85-7.92-2.08-2.54-.46-4.79-.69-6.75-.69h-36.98c-8.22.92-14.19,3.58-17.9,7.97-3.52,4.16-5.28,9-5.28,14.55,0,5.08,1.37,8.89,4.11,11.43,2.74,2.54,6.85,4.27,12.33,5.19,5.67,1.15,12.72,1.73,21.13,1.73ZM683.05,167.45c9.39,0,16.44-2.65,21.13-7.97,4.7-5.54,7.04-12.7,7.04-21.47,0-9.24-2.45-16.85-7.34-22.86-4.7-6-11.64-9-20.84-9s-16.05,3-21.13,9c-5.09,5.77-7.63,13.28-7.63,22.51,0,5.77,1.08,10.97,3.23,15.59,2.35,4.39,5.67,7.85,9.98,10.39s9.49,3.81,15.56,3.81Z"/>
  <path class="st0" d="M261.99,314.52v-63.36h13.82v63.36h-13.82ZM243.27,262.77v-11.62h51.26v11.62h-51.26Z"/>
  <path class="st0" d="M344.96,314.52v-68.64h13.92v15.74c0,1.28-.06,2.62-.19,4.03-.06,1.41-.22,2.85-.48,4.32-.19,1.41-.42,2.85-.67,4.32-.19,1.47-.42,2.94-.67,4.42h2.11c.9-3.26,2.02-6.08,3.36-8.45,1.41-2.37,3.2-4.19,5.38-5.47,2.18-1.34,4.93-2.02,8.26-2.02,5.89,0,10.3,2.08,13.25,6.24,2.94,4.1,4.42,10.4,4.42,18.91v26.59h-13.92v-24.48c0-5.38-.8-9.34-2.4-11.9-1.54-2.62-3.87-3.94-7.01-3.94-2.56,0-4.67.77-6.34,2.3-1.66,1.54-2.91,3.62-3.74,6.24-.83,2.56-1.31,5.44-1.44,8.64v23.14h-13.82Z"/>
  <path class="st0" d="M459.57,315.86c-2.82,0-5.31-.54-7.49-1.63-2.18-1.15-3.87-2.78-5.09-4.9-1.22-2.11-1.82-4.74-1.82-7.87,0-2.75.51-5.06,1.54-6.91,1.09-1.86,2.66-3.36,4.7-4.51s4.58-2.11,7.58-2.88c3.01-.77,6.43-1.44,10.27-2.02,2.05-.32,3.71-.61,4.99-.86,1.34-.32,2.34-.8,2.98-1.44.64-.7.96-1.7.96-2.98,0-1.79-.64-3.33-1.92-4.61s-3.3-1.92-6.05-1.92c-1.86,0-3.58.32-5.18.96-1.54.64-2.88,1.6-4.03,2.88-1.09,1.28-1.89,2.91-2.4,4.9l-12.19-3.74c.77-2.62,1.86-4.9,3.26-6.82,1.47-1.92,3.23-3.52,5.28-4.8,2.05-1.34,4.38-2.34,7.01-2.98,2.62-.64,5.47-.96,8.54-.96,4.93,0,8.93.8,12,2.4,3.14,1.54,5.47,3.97,7.01,7.3,1.54,3.26,2.3,7.49,2.3,12.67v8.64c0,2.24.03,4.51.1,6.82.13,2.3.26,4.64.38,7.01.19,2.3.38,4.61.58,6.91h-12.19c-.26-1.6-.51-3.42-.77-5.47-.19-2.11-.35-4.22-.48-6.34h-1.73c-.9,2.43-2.18,4.64-3.84,6.62-1.66,1.98-3.71,3.58-6.14,4.8-2.37,1.15-5.09,1.73-8.16,1.73ZM465.42,305.88c1.22,0,2.43-.22,3.65-.67,1.28-.45,2.5-1.06,3.65-1.82,1.22-.83,2.3-1.86,3.26-3.07,1.02-1.22,1.86-2.59,2.5-4.13l-.19-8.06,2.21.48c-1.15.83-2.5,1.5-4.03,2.02-1.54.45-3.14.8-4.8,1.06-1.6.26-3.2.54-4.8.86-1.6.32-3.04.74-4.32,1.25-1.22.51-2.21,1.22-2.98,2.11-.7.83-1.06,2.02-1.06,3.55,0,1.98.64,3.55,1.92,4.7s2.94,1.73,4.99,1.73Z"/>
  <g>
    <path class="st1" d="M538.84,47.61c4.5,3.33,10.86,4.99,19.08,4.99s14.77-1.76,19.08-5.28c4.5-3.52,6.75-8.51,6.75-14.96,0-6.85-2.25-12.03-6.75-15.55-4.3-3.52-10.66-5.28-19.08-5.28s-14.58,1.76-19.08,5.28c-4.3,3.52-6.46,8.7-6.46,15.55s2.15,11.74,6.46,15.26Z"/>
    <path class="st1" d="M536.49,315.52h25.58c-4.22-.43-7.46-1.84-9.67-4.26-2.62-3.01-3.94-7.78-3.94-14.3v-21.98h-7.3l.19-10.85h5.09c1.98,0,3.46-.29,4.42-.86.96-.58,1.54-1.63,1.73-3.17l1.25-7.2h7.87v11.23h12.77v11.23h-12.77v21.02c0,2.3.54,3.97,1.63,4.99,1.09,1.02,2.75,1.54,4.99,1.54,1.22,0,2.37-.13,3.46-.38,1.15-.26,2.14-.67,2.98-1.25v12.86c-1.98.64-3.81,1.06-5.47,1.25-.46.05-.91.1-1.34.14h10.8V75.78h-42.27v239.74Z"/>
  </g>
  <path class="st0" d="M794.54,314.52v-63.36h26.3c3.9,0,7.39.35,10.46,1.06,3.07.64,5.7,1.63,7.87,2.98,2.24,1.34,3.94,3.1,5.09,5.28,1.22,2.11,1.82,4.64,1.82,7.58,0,2.5-.54,4.67-1.63,6.53-1.02,1.86-2.66,3.36-4.9,4.51-2.18,1.15-5.06,1.95-8.64,2.4v1.44c6.08.45,10.53,1.98,13.34,4.61,2.88,2.56,4.32,6.02,4.32,10.37,0,3.65-.96,6.72-2.88,9.22-1.86,2.43-4.67,4.29-8.45,5.57-3.78,1.22-8.45,1.82-14.02,1.82h-28.7ZM807.7,303.38h15.36c4.1,0,7.14-.61,9.12-1.82,1.98-1.28,2.98-3.23,2.98-5.86,0-3.01-1.25-5.25-3.74-6.72-2.5-1.54-6.27-2.3-11.33-2.3h-12.38v16.7ZM807.7,278.04h10.37c4.99,0,8.64-.67,10.94-2.02,2.37-1.41,3.55-3.46,3.55-6.14s-1.06-4.64-3.17-5.86c-2.11-1.28-5.34-1.92-9.7-1.92h-12v15.94Z"/>
  <path class="st0" d="M918.73,315.86c-5.89,0-10.34-1.98-13.34-5.95-2.94-4.03-4.42-10.14-4.42-18.34v-27.46h13.82v25.73c0,4.93.74,8.61,2.21,11.04,1.47,2.37,3.71,3.55,6.72,3.55,1.79,0,3.36-.45,4.7-1.34s2.5-2.14,3.46-3.74c.96-1.6,1.66-3.49,2.11-5.66.51-2.18.8-4.51.86-7.01v-22.56h13.82v50.4h-11.14l-.1-15.74h-1.73c-.96,3.97-2.18,7.23-3.65,9.79-1.41,2.5-3.23,4.35-5.47,5.57-2.18,1.15-4.8,1.73-7.87,1.73Z"/>
  <path class="st0" d="M1003.6,314.52v-50.4h13.83v50.4h-13.83ZM1010.61,256.53c-2.69,0-4.77-.54-6.24-1.63-1.41-1.15-2.11-2.82-2.11-4.99s.7-3.94,2.11-5.09c1.47-1.15,3.55-1.73,6.24-1.73s4.83.58,6.24,1.73c1.47,1.15,2.21,2.85,2.21,5.09,0,2.11-.74,3.74-2.21,4.9-1.41,1.15-3.49,1.73-6.24,1.73Z"/>
  <path class="st0" d="M1072.47,314.52v-68.64h13.63v68.64h-13.63Z"/>
  <g>
    <path class="st2" d="M1171.39,277.37c-.96-1.02-2.08-1.82-3.36-2.4s-2.69-.86-4.23-.86c-2.3,0-4.25.64-5.85,1.92-1.6,1.28-2.85,3.07-3.75,5.38-.89,2.24-1.34,4.86-1.34,7.87s.45,5.76,1.34,8.06c.96,2.3,2.28,4.1,3.94,5.38,1.66,1.22,3.62,1.82,5.86,1.82,2.11,0,3.9-.45,5.37-1.34s2.69-2.05,3.65-3.46c.96-1.47,1.66-3.04,2.11-4.7.45-1.73.67-3.33.67-4.8v-1.82c0-1.22-.19-2.46-.57-3.74-.32-1.34-.8-2.66-1.44-3.94-.64-1.28-1.44-2.4-2.4-3.36Z"/>
    <path class="st2" d="M1189.63,246.02v68.5h-11.52v-14.59h-1.92c-.71,3.58-1.79,6.56-3.27,8.93-1.47,2.37-3.36,4.13-5.66,5.28-2.24,1.15-4.86,1.73-7.87,1.73-4.23,0-7.94-1.09-11.14-3.26-3.13-2.18-5.57-5.25-7.29-9.22-1.73-3.97-2.6-8.67-2.6-14.11,0-5.12.77-9.66,2.31-13.63,1.53-3.97,3.81-7.07,6.81-9.31,3.01-2.24,6.76-3.36,11.24-3.36,3.26,0,6.01.61,8.25,1.82s4.07,3.01,5.47,5.38c1.48,2.3,2.63,5.09,3.46,8.35h2.21c-.45-2.05-.87-4.03-1.25-5.95-.32-1.98-.58-3.87-.77-5.66-.19-1.79-.29-3.36-.29-4.7v-16.18h-42.3v109.39c0,5.92.42,12.83,1.27,20.72.84,7.89,1.97,16.21,3.38,24.95,1.69,8.46,3.52,17.2,5.5,26.22h-9.73c-3.66-14.38-8.74-26.64-15.22-36.79-6.21-10.43-14.24-18.33-24.11-23.68-9.87-5.36-21.99-8.03-36.37-8.03-19.73,0-36.23,4.93-49.48,14.8-13.25,9.87-23.26,23.54-30.02,41.02-6.77,17.48-10.15,37.5-10.15,60.05,0,23.96,3.81,44.69,11.42,62.17,7.61,17.48,18.33,31.01,32.14,40.6,14.09,9.59,30.45,14.38,49.05,14.38,13.25,0,24.81-2.54,34.68-7.61,10.15-5.08,18.47-12.83,24.95-23.26,6.49-10.43,11.28-23.54,14.38-39.33h8.46v64.28h50.75V246.02h-4.77ZM1133.5,478.9c0,6.48-.99,13.53-2.96,21.14-1.98,7.33-5.08,14.24-9.31,20.72-4.22,6.2-9.58,11.28-16.07,15.22-6.48,3.95-14.37,5.92-23.68,5.92-9.87,0-18.46-2.68-25.79-8.04-7.34-5.64-13.11-13.53-17.34-23.68-3.95-10.15-5.92-21.99-5.92-35.52s1.97-24.81,5.92-34.68c3.94-10.15,9.44-18.04,16.49-23.68,7.05-5.64,15.65-8.46,25.8-8.46,6.76,0,12.96,1.27,18.6,3.81,5.64,2.54,10.58,6.06,14.8,10.57,4.23,4.23,7.76,9.16,10.58,14.8,2.82,5.64,4.93,11.42,6.34,17.34,1.69,5.64,2.54,11.14,2.54,16.49v8.04Z"/>
  </g>
</svg>