<svg width="1440" height="592" viewBox="0 0 1440 592" fill="none" xmlns="http://www.w3.org/2000/svg">
  <!-- Background Layer -->
  <defs>
    <style>
      .background-text { fill: #A3ABB5; }
      .main-text { fill: #11406E; }
      .accent-text { fill: #436B92; }
      .highlight-text { fill: white; }
      .blend-mode { mix-blend-mode: plus-darker; }
    </style>
  </defs>
  
  <!-- Background Text Layer (lightest color) -->
  <g class="background-layer blend-mode">
    <!-- "brands" text in background -->
    <path class="background-text" d="M0.928223 585.371V306.259H116.802C134 306.259 149.365 307.81 162.898 310.911C176.43 313.73 187.99 318.1 197.575 324.021C207.443 329.941 214.914 337.695 219.989 347.28C225.346 356.584 228.024 367.72 228.024 380.689C228.024 391.684 225.627 401.27 220.835 409.446C216.324 417.622 209.134 424.247 199.267 429.322C189.681 434.397 176.994 437.921 161.206 439.895V446.238C187.99 448.212 207.584 454.978 219.989 466.537C232.676 477.814 239.019 493.039 239.019 512.21C239.019 528.28 234.79 541.813 226.332 552.808C218.156 563.522 205.751 571.698 189.117 577.336C172.483 582.693 151.902 585.371 127.374 585.371H0.928223ZM58.8651 536.315H126.529C144.572 536.315 157.964 533.637 166.704 528.28C175.444 522.642 179.814 514.043 179.814 502.483C179.814 489.233 174.316 479.365 163.321 472.881C152.325 466.114 135.691 462.731 113.419 462.731H58.8651V536.315ZM58.8651 424.67H104.538C126.529 424.67 142.599 421.71 152.748 415.79C163.18 409.587 168.395 400.565 168.395 388.724C168.395 376.883 163.744 368.284 154.44 362.927C145.136 357.289 130.899 354.47 111.727 354.47H58.8651V424.67Z"/>
    
    <path class="background-text" d="M286.645 585.371V363.35H336.969L337.392 439.049H345.427C347.683 420.16 351.489 404.794 356.846 392.953C362.484 381.112 370.237 372.372 380.105 366.734C389.972 361.095 402.236 358.276 416.897 358.276C419.434 358.276 422.113 358.417 424.932 358.698C428.033 358.698 431.557 359.121 435.504 359.967L432.967 424.67C428.738 422.697 424.086 421.287 419.011 420.441C413.937 419.596 409.426 419.173 405.479 419.173C394.483 419.173 385.039 421.71 377.145 426.785C369.25 431.86 362.766 439.19 357.691 448.776C352.898 458.079 349.656 469.497 347.965 483.03V585.371H286.645Z"/>
    
    <path class="background-text" d="M518.723 591.292C506.318 591.292 495.322 588.895 485.737 584.103C476.151 579.028 468.68 571.839 463.323 562.535C457.966 553.231 455.288 541.672 455.288 527.857C455.288 515.734 457.543 505.585 462.054 497.409C466.847 489.233 473.755 482.607 482.776 477.533C491.798 472.458 502.934 468.229 516.185 464.846C529.436 461.462 544.519 458.502 561.435 455.965C570.457 454.555 577.787 453.286 583.426 452.159C589.346 450.749 593.716 448.635 596.536 445.815C599.355 442.714 600.765 438.344 600.765 432.705C600.765 424.811 597.945 418.045 592.307 412.406C586.668 406.768 577.787 403.948 565.664 403.948C557.488 403.948 549.876 405.358 542.828 408.177C536.061 410.997 530.141 415.226 525.066 420.864C520.273 426.503 516.749 433.692 514.494 442.432L460.786 425.939C464.169 414.38 468.962 404.371 475.164 395.913C481.649 387.455 489.402 380.407 498.423 374.769C507.445 368.848 517.736 364.478 529.295 361.659C540.854 358.839 553.4 357.43 566.933 357.43C588.642 357.43 606.262 360.954 619.795 368.002C633.61 374.769 643.9 385.482 650.666 400.142C657.433 414.521 660.816 433.128 660.816 455.965V494.025C660.816 503.893 660.957 513.902 661.239 524.051C661.803 534.201 662.367 544.491 662.93 554.923C663.776 565.072 664.622 575.222 665.468 585.371H611.76C610.632 578.323 609.504 570.288 608.377 561.266C607.531 551.962 606.826 542.659 606.262 533.355H598.65C594.703 544.068 589.064 553.795 581.734 562.535C574.404 571.275 565.382 578.323 554.669 583.68C544.237 588.754 532.255 591.292 518.723 591.292ZM544.519 547.311C549.876 547.311 555.233 546.324 560.589 544.35C566.228 542.377 571.585 539.698 576.659 536.315C582.016 532.65 586.809 528.139 591.038 522.783C595.549 517.426 599.214 511.364 602.033 504.598L601.187 469.075L610.914 471.189C605.839 474.854 599.919 477.814 593.152 480.07C586.386 482.043 579.338 483.594 572.008 484.722C564.959 485.849 557.911 487.118 550.863 488.528C543.814 489.937 537.471 491.77 531.832 494.025C526.476 496.281 522.106 499.382 518.723 503.329C515.621 506.994 514.071 512.21 514.071 518.976C514.071 527.716 516.89 534.624 522.529 539.698C528.167 544.773 535.497 547.311 544.519 547.311Z"/>
    
    <path class="background-text" d="M714.084 585.371V363.35H763.986L763.563 429.745H772.021C775.686 413.675 780.902 400.283 787.668 389.57C794.435 378.857 802.893 370.822 813.042 365.465C823.474 360.108 835.738 357.43 849.834 357.43C875.49 357.43 894.943 366.452 908.194 384.495C921.727 402.539 928.493 430.873 928.493 469.497V585.371H867.173V476.264C867.173 452.582 863.649 435.384 856.601 424.67C849.834 413.675 839.826 408.177 826.575 408.177C815.298 408.177 805.853 411.702 798.241 418.75C790.629 425.798 784.849 435.102 780.902 446.661C777.237 457.938 775.263 470.625 774.982 484.722V585.371H714.084Z"/>
    
    <path class="background-text" d="M1061.65 591.292C1043.04 591.292 1026.69 586.499 1012.59 576.913C998.776 567.328 988.062 553.795 980.45 536.315C972.838 518.835 969.032 498.113 969.032 474.149C969.032 451.595 972.415 431.578 979.181 414.098C985.948 396.618 995.956 382.945 1009.21 373.077C1022.46 363.209 1038.95 358.276 1058.69 358.276C1073.06 358.276 1085.19 360.954 1095.05 366.311C1104.92 371.667 1112.96 379.561 1119.16 389.993C1125.64 400.142 1130.72 412.406 1134.38 426.785H1144.11C1142.14 417.763 1140.31 409.023 1138.61 400.565C1137.2 391.825 1136.08 383.508 1135.23 375.614C1134.38 367.72 1133.96 360.813 1133.96 354.892V245.5H1194.86V585.371H1144.11V521.091H1135.65C1132.55 536.879 1127.76 549.989 1121.27 560.42C1114.79 570.852 1106.47 578.605 1096.32 583.68C1086.46 588.754 1074.9 591.292 1061.65 591.292ZM1081.95 541.39C1091.25 541.39 1099.14 539.416 1105.63 535.469C1112.11 531.522 1117.47 526.448 1121.7 520.245C1125.93 513.761 1129.03 506.853 1131 499.523C1132.97 491.911 1133.96 484.863 1133.96 478.378V470.343C1133.96 464.987 1133.12 459.489 1131.42 453.85C1130.01 447.93 1127.9 442.15 1125.08 436.512C1122.26 430.873 1118.74 425.939 1114.51 421.71C1110.28 417.199 1105.35 413.675 1099.71 411.138C1094.07 408.6 1087.87 407.332 1081.1 407.332C1070.95 407.332 1062.35 410.151 1055.3 415.79C1048.25 421.428 1042.76 429.322 1038.81 439.472C1034.86 449.339 1032.89 460.899 1032.89 474.149C1032.89 487.682 1034.86 499.523 1038.81 509.673C1043.04 519.822 1048.82 527.716 1056.15 533.355C1063.48 538.712 1072.08 541.39 1081.95 541.39Z"/>
    
    <path class="background-text" d="M1339.77 591.292C1324.83 591.292 1311.3 589.882 1299.18 587.063C1287.05 584.244 1276.62 580.156 1267.88 574.799C1259.14 569.442 1252.09 563.099 1246.74 555.768C1241.38 548.156 1237.86 539.698 1236.16 530.395L1282.68 511.364C1283.81 517.567 1286.91 523.346 1291.99 528.703C1297.06 534.06 1303.83 538.43 1312.29 541.813C1321.03 544.914 1331.46 546.465 1343.58 546.465C1356.55 546.465 1366.56 544.632 1373.61 540.967C1380.65 537.02 1384.18 531.522 1384.18 524.474C1384.18 519.117 1382.2 514.888 1378.26 511.787C1374.31 508.686 1368.53 506.008 1360.92 503.752C1353.31 501.497 1344.14 499.382 1333.43 497.409C1323 494.871 1312.29 492.193 1301.29 489.374C1290.58 486.554 1280.57 482.607 1271.26 477.533C1262.24 472.458 1254.77 465.832 1248.85 457.656C1243.21 449.198 1240.39 438.485 1240.39 425.516C1240.39 411.983 1244.06 400.142 1251.39 389.993C1258.72 379.843 1269.43 371.949 1283.53 366.311C1297.62 360.39 1314.82 357.43 1335.12 357.43C1353.45 357.43 1369.52 359.967 1383.33 365.042C1397.15 369.835 1408.42 376.883 1417.16 386.187C1426.19 395.209 1432.25 406.063 1435.35 418.75L1385.87 435.243C1384.74 428.476 1381.92 422.556 1377.41 417.481C1373.18 412.406 1367.4 408.6 1360.07 406.063C1353.02 403.526 1344.71 402.257 1335.12 402.257C1323 402.257 1313.55 404.23 1306.79 408.177C1300.3 412.124 1297.06 417.34 1297.06 423.825C1297.06 429.181 1299.18 433.551 1303.4 436.934C1307.92 440.318 1314.12 443.137 1322.01 445.392C1329.91 447.366 1339.21 449.48 1349.92 451.736C1361.2 453.991 1372.2 456.67 1382.91 459.771C1393.62 462.59 1403.21 466.396 1411.67 471.189C1420.41 475.982 1427.31 482.325 1432.39 490.219C1437.46 498.113 1440 508.263 1440 520.668C1440 535.328 1436.05 548.015 1428.16 558.729C1420.26 569.16 1408.85 577.195 1393.9 582.834C1378.96 588.472 1360.92 591.292 1339.77 591.292Z"/>
  </g>
  
  <!-- Main Text Layer (darker blue) -->
  <g class="main-layer">
    <!-- "Desingns" text in main color -->
    <path class="main-text" d="M21.2523 229.304V194.974H77.6064C88.5642 194.974 97.663 192.627 104.903 187.932C112.143 183.042 117.622 176 121.34 166.806C125.057 157.612 126.916 146.364 126.916 133.063C126.916 122.108 125.742 112.719 123.394 104.894C121.046 96.8741 117.524 90.3211 112.828 85.2352C108.327 80.1492 102.555 76.3348 95.5106 73.7918C88.662 71.2488 80.5416 69.9773 71.1492 69.9773H21.2523V35.6472H69.6816C93.1625 35.6472 112.339 39.4617 127.21 47.0906C142.081 54.7195 153.039 65.6739 160.083 79.9536C167.127 94.0378 170.65 110.958 170.65 130.715C170.65 145.582 168.888 158.492 165.366 169.447C161.844 180.401 157.05 189.693 150.984 197.321C145.114 204.95 138.265 211.112 130.438 215.807C122.612 220.502 114.295 223.925 105.49 226.077C96.6847 228.228 87.7815 229.304 78.7805 229.304H21.2523ZM1 229.304V35.6472H43.2656V229.304H1Z"/>
    
    <path class="main-text" d="M276.077 233.412C263.359 233.412 252.009 231.652 242.03 228.131C232.246 224.609 223.93 219.524 217.082 212.873C210.233 206.222 204.95 198.006 201.232 188.225C197.71 178.445 195.949 167.393 195.949 155.069C195.949 142.941 197.612 131.791 200.938 121.619C204.461 111.252 209.548 102.351 216.201 94.918C222.854 87.2891 230.974 81.4207 240.563 77.3128C250.151 73.205 261.01 71.151 273.142 71.151C284.883 71.151 295.351 73.1072 304.548 77.0194C313.745 80.7361 321.376 86.4088 327.442 94.0378C333.703 101.667 338.204 111.056 340.943 122.206C343.878 133.16 344.955 145.777 344.172 160.057L223.245 161.231V138.051L319.811 137.17L304.841 148.907C306.211 138.54 305.526 130.031 302.787 123.38C300.047 116.729 296.036 111.839 290.753 108.709C285.665 105.579 279.991 104.014 273.729 104.014C266.294 104.014 259.739 105.97 254.064 109.882C248.389 113.795 243.987 119.565 240.856 127.194C237.725 134.627 236.16 143.626 236.16 154.189C236.16 170.816 239.78 183.042 247.02 190.866C254.455 198.691 264.141 202.603 276.077 202.603C281.556 202.603 286.155 201.918 289.872 200.549C293.786 198.984 296.917 197.028 299.265 194.681C301.809 192.333 303.765 189.693 305.135 186.758C306.7 183.824 307.972 180.89 308.951 177.956L345.64 185.878C343.878 193.116 341.237 199.669 337.715 205.537C334.388 211.21 329.888 216.198 324.213 220.502C318.539 224.61 311.69 227.739 303.667 229.891C295.84 232.238 286.644 233.412 276.077 233.412Z"/>
    
    <path class="main-text" d="M438.364 233.412C427.993 233.412 418.601 232.434 410.187 230.478C401.773 228.522 394.533 225.685 388.467 221.969C382.401 218.252 377.509 213.851 373.791 208.765C370.074 203.483 367.628 197.615 366.454 191.16L398.74 177.956C399.523 182.259 401.675 186.269 405.197 189.986C408.719 193.703 413.415 196.735 419.286 199.082C425.352 201.234 432.591 202.31 441.005 202.31C450.007 202.31 456.953 201.038 461.845 198.495C466.737 195.757 469.183 191.942 469.183 187.052C469.183 183.335 467.813 180.401 465.073 178.249C462.334 176.097 458.323 174.239 453.039 172.674C447.756 171.109 441.397 169.642 433.961 168.273C426.721 166.512 419.286 164.654 411.654 162.698C404.219 160.742 397.272 158.003 390.815 154.482C384.553 150.961 379.368 146.364 375.259 140.691C371.345 134.823 369.389 127.39 369.389 118.392C369.389 109.002 371.932 100.786 377.02 93.7443C382.108 86.7023 389.543 81.2251 399.327 77.3128C409.111 73.205 421.047 71.151 435.135 71.151C447.854 71.151 459.007 72.9115 468.596 76.4326C478.184 79.758 486.011 84.6483 492.076 91.1036C498.338 97.3632 502.545 104.894 504.697 113.697L470.357 125.14C469.574 120.446 467.617 116.338 464.486 112.817C461.551 109.296 457.54 106.655 452.452 104.894C447.561 103.134 441.788 102.254 435.135 102.254C426.721 102.254 420.166 103.623 415.47 106.361C410.969 109.1 408.719 112.719 408.719 117.218C408.719 120.935 410.187 123.967 413.122 126.314C416.253 128.661 420.558 130.617 426.036 132.182C431.515 133.552 437.973 135.019 445.408 136.584C453.235 138.149 460.866 140.007 468.302 142.159C475.738 144.115 482.391 146.755 488.261 150.081C494.327 153.406 499.121 157.808 502.643 163.285C506.165 168.762 507.926 175.804 507.926 184.411C507.926 194.583 505.187 203.385 499.708 210.819C494.229 218.056 486.304 223.631 475.933 227.544C465.563 231.456 453.039 233.412 438.364 233.412Z"/>
    
    <path class="main-text" d="M536.954 315V75.2589H579.219V315H536.954ZM558.38 52.0787C550.162 52.0787 543.802 50.416 539.302 47.0906C534.997 43.5696 532.845 38.4836 532.845 31.8328C532.845 24.9863 534.997 19.8026 539.302 16.2816C543.802 12.7605 550.162 11 558.38 11C566.794 11 573.154 12.7605 577.458 16.2816C581.959 19.8026 584.209 24.9863 584.209 31.8328C584.209 38.288 581.959 43.2761 577.458 46.7972C573.154 50.3182 566.794 52.0787 558.38 52.0787Z"/>
    
    <path class="main-text" d="M794.636 229.304V75.2589H829.27L828.977 121.326H834.847C837.391 110.176 841.011 100.884 845.707 93.4509C850.403 86.0176 856.273 80.4426 863.318 76.726C870.558 73.0093 879.07 71.151 888.853 71.151C906.66 71.151 920.161 77.4106 929.358 89.9299C938.75 102.449 943.446 122.108 943.446 148.907V229.304H900.887V153.602C900.887 137.17 898.441 125.238 893.549 117.805C888.853 110.176 881.907 106.361 872.71 106.361C864.883 106.361 858.328 108.807 853.045 113.697C847.762 118.587 843.75 125.042 841.011 133.063C838.467 140.887 837.097 149.69 836.902 159.47V229.304H794.636Z"/>
    
    <path class="main-text" d="M1041.44 233.412C1031.07 233.412 1021.67 232.434 1013.26 230.478C1004.85 228.522 997.607 225.685 991.541 221.969C985.475 218.252 980.583 213.851 976.865 208.765C973.147 203.483 970.702 197.615 969.527 191.16L1001.81 177.956C1002.6 182.259 1004.75 186.269 1008.27 189.986C1011.79 193.703 1016.49 196.735 1022.36 199.082C1028.43 201.234 1035.67 202.31 1044.08 202.31C1053.08 202.31 1060.03 201.038 1064.92 198.495C1069.81 195.757 1072.26 191.942 1072.26 187.052C1072.26 183.335 1070.89 180.401 1068.15 178.249C1065.41 176.097 1061.4 174.239 1056.11 172.674C1050.83 171.109 1044.47 169.642 1037.04 168.273C1029.8 166.512 1022.36 164.654 1014.73 162.698C1007.29 160.742 1000.35 158.003 993.889 154.482C987.627 150.961 982.442 146.364 978.333 140.691C974.419 134.823 972.463 127.39 972.463 118.392C972.463 109.002 975.006 100.786 980.094 93.7443C985.181 86.7023 992.617 81.2251 1002.4 77.3128C1012.18 73.205 1024.12 71.151 1038.21 71.151C1050.93 71.151 1062.08 72.9115 1071.67 76.4326C1081.26 79.758 1089.08 84.6483 1095.15 91.1036C1101.41 97.3632 1105.62 104.894 1107.77 113.697L1073.43 125.14C1072.65 120.446 1070.69 116.338 1067.56 112.817C1064.63 109.296 1060.61 106.655 1055.53 104.894C1050.63 103.134 1044.86 102.254 1038.21 102.254C1029.8 102.254 1023.24 103.623 1018.54 106.361C1014.04 109.1 1011.79 112.719 1011.79 117.218C1011.79 120.935 1013.26 123.967 1016.2 126.314C1019.33 128.661 1023.63 130.617 1029.11 132.182C1034.59 133.552 1041.05 135.019 1048.48 136.584C1056.31 138.149 1063.94 140.007 1071.38 142.159C1078.81 144.115 1085.46 146.755 1091.33 150.081C1097.4 153.406 1102.19 157.808 1105.72 163.285C1109.24 168.762 1111 175.804 1111 184.411C1111 194.583 1108.26 203.385 1102.78 210.819C1097.3 218.056 1089.38 223.631 1079.01 227.544C1068.64 231.456 1056.11 233.412 1041.44 233.412Z"/>
    
    <path class="main-text" d="M679.408 321.049C662.58 321.049 648.687 319.433 637.729 316.201C626.967 313.199 619.042 308.697 613.955 302.694C608.867 296.691 606.323 289.187 606.323 280.182C606.323 269.561 609.846 260.903 616.89 254.207C624.13 247.511 634.696 243.471 648.589 242.086V235.159C638.023 235.159 629.902 233.889 624.228 231.349C618.553 228.579 615.716 223.846 615.716 217.15C615.716 210.685 618.455 204.913 623.934 199.833C629.609 194.754 638.903 190.713 651.818 187.712V180.785C639.686 179.861 630.196 175.244 623.347 166.932C616.498 158.62 613.074 147.883 613.074 134.723C613.074 123.179 615.814 112.904 621.293 103.899C626.771 94.6639 634.892 87.391 645.654 82.0805C656.612 76.5392 670.015 73.7686 685.865 73.7686H763.939V111.865L715.51 103.899V111.865C728.033 113.943 737.034 117.637 742.513 122.948C748.187 128.258 751.024 135.646 751.024 145.113C751.024 154.579 748.383 162.891 743.1 170.049C737.816 177.206 730.283 182.863 720.499 187.019C710.911 190.944 699.366 192.907 685.865 192.907C683.321 192.907 680.582 192.791 677.647 192.56C674.712 192.329 669.82 191.752 662.971 190.829C659.253 194.061 656.318 196.947 654.166 199.487C652.209 201.796 651.231 203.989 651.231 206.067C651.231 207.683 651.916 209.069 653.285 210.223C654.851 211.378 656.807 212.186 659.155 212.647C661.699 213.109 664.243 213.34 666.787 213.34H710.813C714.727 213.34 719.814 213.686 726.076 214.379C732.338 214.841 738.599 216.573 744.861 219.574C751.122 222.576 756.406 227.424 760.71 234.12C765.015 240.585 767.168 249.936 767.168 262.173C767.168 275.564 763.939 286.647 757.482 295.421C751.22 304.194 741.534 310.659 728.424 314.815C715.51 318.971 699.171 321.049 679.408 321.049ZM684.104 281.221C696.04 281.221 705.335 280.413 711.987 278.797C718.64 277.411 723.337 274.987 726.076 271.524C729.011 268.291 730.479 264.135 730.479 259.056C730.479 254.438 729.598 250.859 727.837 248.32C726.272 245.78 724.119 244.048 721.38 243.125C718.836 241.97 716.194 241.278 713.455 241.047C710.911 240.585 708.661 240.354 706.704 240.354H669.722C661.504 241.278 655.536 243.933 651.818 248.32C648.296 252.476 646.534 257.324 646.534 262.866C646.534 267.945 647.904 271.755 650.644 274.294C653.383 276.834 657.492 278.566 662.971 279.489C668.646 280.644 675.69 281.221 684.104 281.221ZM683.517 166.932C692.909 166.932 699.954 164.277 704.65 158.966C709.346 153.425 711.694 146.267 711.694 137.494C711.694 128.258 709.248 120.639 704.356 114.636C699.66 108.633 692.714 105.631 683.517 105.631C674.516 105.631 667.472 108.633 662.384 114.636C657.297 120.408 654.753 127.912 654.753 137.147C654.753 142.919 655.829 148.114 657.981 152.732C660.329 157.119 663.656 160.582 667.961 163.122C672.266 165.662 677.451 166.932 683.517 166.932Z"/>
  </g>
  
  <!-- Accent Text Layer (medium blue) -->
  <g class="accent-layer">
    <!-- "that" text in accent color -->
    <path class="accent-text" d="M262.448 314V250.64H276.272V314H262.448ZM243.728 262.256V250.64H294.992V262.256H243.728Z"/>
    
    <path class="accent-text" d="M345.42 314V245.36H359.34V261.104C359.34 262.384 359.276 263.728 359.148 265.136C359.084 266.544 358.924 267.984 358.668 269.456C358.476 270.864 358.252 272.304 357.996 273.776C357.804 275.248 357.58 276.72 357.324 278.192H359.436C360.332 274.928 361.452 272.112 362.796 269.744C364.204 267.376 365.996 265.552 368.172 264.272C370.348 262.928 373.1 262.256 376.428 262.256C382.316 262.256 386.732 264.336 389.676 268.496C392.62 272.592 394.092 278.896 394.092 287.408V314H380.172V289.52C380.172 284.144 379.372 280.176 377.772 277.616C376.236 274.992 373.9 273.68 370.764 273.68C368.204 273.68 366.092 274.448 364.428 275.984C362.764 277.52 361.516 279.6 360.684 282.224C359.852 284.784 359.372 287.664 359.244 290.864V314H345.42Z"/>
    
    <path class="accent-text" d="M460.03 315.344C457.214 315.344 454.718 314.8 452.542 313.712C450.366 312.56 448.67 310.928 447.454 308.816C446.238 306.704 445.63 304.08 445.63 300.944C445.63 298.192 446.142 295.888 447.166 294.032C448.254 292.176 449.822 290.672 451.87 289.52C453.918 288.368 456.446 287.408 459.454 286.64C462.462 285.872 465.886 285.2 469.726 284.624C471.774 284.304 473.438 284.016 474.718 283.76C476.062 283.44 477.054 282.96 477.694 282.32C478.334 281.616 478.654 280.624 478.654 279.344C478.654 277.552 478.014 276.016 476.734 274.736C475.454 273.456 473.438 272.816 470.686 272.816C468.83 272.816 467.102 273.136 465.502 273.776C463.966 274.416 462.622 275.376 461.47 276.656C460.382 277.936 459.582 279.568 459.07 281.552L446.878 277.808C447.646 275.184 448.734 272.912 450.142 270.992C451.614 269.072 453.374 267.472 455.422 266.192C457.47 264.848 459.806 263.856 462.43 263.216C465.054 262.576 467.902 262.256 470.974 262.256C475.902 262.256 479.902 263.056 482.974 264.656C486.11 266.192 488.446 268.624 489.982 271.952C491.518 275.216 492.286 279.44 492.286 284.624V293.264C492.286 295.504 492.318 297.776 492.382 300.08C492.51 302.384 492.638 304.72 492.766 307.088C492.958 309.392 493.15 311.696 493.342 314H481.15C480.894 312.4 480.638 310.576 480.382 308.528C480.19 306.416 480.03 304.304 479.902 302.192H478.174C477.278 304.624 475.998 306.832 474.334 308.816C472.67 310.8 470.622 312.4 468.19 313.616C465.822 314.768 463.102 315.344 460.03 315.344ZM465.886 305.36C467.102 305.36 468.318 305.136 469.534 304.688C470.814 304.24 472.03 303.632 473.182 302.864C474.398 302.032 475.486 301.008 476.446 299.792C477.47 298.576 478.302 297.2 478.942 295.664L478.75 287.6L480.958 288.08C479.806 288.912 478.462 289.584 476.926 290.096C475.39 290.544 473.79 290.896 472.126 291.152C470.526 291.408 468.926 291.696 467.326 292.016C465.726 292.336 464.286 292.752 463.006 293.264C461.79 293.776 460.798 294.48 460.03 295.376C459.326 296.208 458.974 297.392 458.974 298.928C458.974 300.912 459.614 302.48 460.894 303.632C462.174 304.784 463.838 305.36 465.886 305.36Z"/>
    
    <path class="accent-text" d="M795.008 314V250.64H821.312C825.216 250.64 828.704 250.992 831.776 251.696C834.848 252.336 837.472 253.328 839.648 254.672C841.888 256.016 843.584 257.776 844.736 259.952C845.952 262.064 846.56 264.592 846.56 267.536C846.56 270.032 846.016 272.208 844.928 274.064C843.904 275.92 842.272 277.424 840.032 278.576C837.856 279.728 834.976 280.528 831.392 280.976V282.416C837.472 282.864 841.92 284.4 844.736 287.024C847.616 289.584 849.056 293.04 849.056 297.392C849.056 301.04 848.096 304.112 846.176 306.608C844.32 309.04 841.504 310.896 837.728 312.176C833.952 313.392 829.28 314 823.712 314H795.008ZM808.16 302.864H823.52C827.616 302.864 830.656 302.256 832.64 301.04C834.624 299.76 835.616 297.808 835.616 295.184C835.616 292.176 834.368 289.936 831.872 288.464C829.376 286.928 825.6 286.16 820.544 286.16H808.16V302.864ZM808.16 277.52H818.528C823.52 277.52 827.168 276.848 829.472 275.504C831.84 274.096 833.024 272.048 833.024 269.36C833.024 266.672 831.968 264.72 829.856 263.504C827.744 262.224 824.512 261.584 820.16 261.584H808.16V277.52Z"/>
    
    <path class="accent-text" d="M919.195 315.344C913.307 315.344 908.859 313.36 905.851 309.392C902.907 305.36 901.435 299.248 901.435 291.056V263.6H915.259V289.328C915.259 294.256 915.995 297.936 917.467 300.368C918.939 302.736 921.179 303.92 924.187 303.92C925.979 303.92 927.547 303.472 928.891 302.576C930.235 301.68 931.387 300.432 932.347 298.832C933.307 297.232 934.011 295.344 934.459 293.168C934.971 290.992 935.259 288.656 935.323 286.16V263.6H949.147V314H938.011L937.915 298.256H936.187C935.227 302.224 934.011 305.488 932.539 308.048C931.131 310.544 929.307 312.4 927.067 313.616C924.891 314.768 922.267 315.344 919.195 315.344Z"/>
    
    <path class="accent-text" d="M1004.07 314V263.6H1017.89V314H1004.07ZM1011.07 256.016C1008.39 256.016 1006.31 255.472 1004.83 254.384C1003.43 253.232 1002.72 251.568 1002.72 249.392C1002.72 247.152 1003.43 245.456 1004.83 244.304C1006.31 243.152 1008.39 242.576 1011.07 242.576C1013.83 242.576 1015.91 243.152 1017.31 244.304C1018.79 245.456 1019.52 247.152 1019.52 249.392C1019.52 251.504 1018.79 253.136 1017.31 254.288C1015.91 255.44 1013.83 256.016 1011.07 256.016Z"/>
    
    <path class="accent-text" d="M1072.93 314V245.36H1086.56V314H1072.93Z"/>
  </g>
  
  <!-- Highlight Text Layer (white) -->
  <g class="highlight-layer">
    <!-- "t" and "d" letters in white for emphasis -->
    <path class="highlight-text" d="M565.339 315.152C559.707 315.152 555.547 313.68 552.859 310.736C550.235 307.728 548.923 302.96 548.923 296.432V274.448H541.627L541.819 263.6H546.907C548.891 263.6 550.363 263.312 551.323 262.736C552.283 262.16 552.859 261.104 553.051 259.568L554.299 252.368H562.171V263.6H574.939V274.832H562.171V295.856C562.171 298.16 562.715 299.824 563.803 300.848C564.891 301.872 566.555 302.384 568.795 302.384C570.011 302.384 571.163 302.256 572.251 302C573.403 301.744 574.395 301.328 575.227 300.752V313.616C573.243 314.256 571.419 314.672 569.755 314.864C568.091 315.056 566.619 315.152 565.339 315.152Z"/>
    
    <path class="highlight-text" d="M1159.85 315.344C1155.63 315.344 1151.91 314.256 1148.71 312.08C1145.58 309.904 1143.15 306.832 1141.42 302.864C1139.69 298.896 1138.83 294.192 1138.83 288.752C1138.83 283.632 1139.59 279.088 1141.13 275.12C1142.67 271.152 1144.94 268.048 1147.95 265.808C1150.95 263.568 1154.7 262.448 1159.18 262.448C1162.44 262.448 1165.19 263.056 1167.43 264.272C1169.67 265.488 1171.5 267.28 1172.91 269.648C1174.38 271.952 1175.53 274.736 1176.36 278H1178.57C1178.12 275.952 1177.71 273.968 1177.32 272.048C1177 270.064 1176.75 268.176 1176.55 266.384C1176.36 264.592 1176.27 263.024 1176.27 261.68V245.36H1190.09V314H1178.57V299.408H1176.65C1175.95 302.992 1174.86 305.968 1173.39 308.336C1171.91 310.704 1170.03 312.464 1167.72 313.616C1165.48 314.768 1162.86 315.344 1159.85 315.344ZM1164.46 304.016C1166.57 304.016 1168.36 303.568 1169.83 302.672C1171.31 301.776 1172.52 300.624 1173.48 299.216C1174.44 297.744 1175.15 296.176 1175.59 294.512C1176.04 292.784 1176.27 291.184 1176.27 289.712V287.888C1176.27 286.672 1176.07 285.424 1175.69 284.144C1175.37 282.8 1174.89 281.488 1174.25 280.208C1173.61 278.928 1172.81 277.808 1171.85 276.848C1170.89 275.824 1169.77 275.024 1168.49 274.448C1167.21 273.872 1165.8 273.584 1164.27 273.584C1161.96 273.584 1160.01 274.224 1158.41 275.504C1156.81 276.784 1155.56 278.576 1154.67 280.88C1153.77 283.12 1153.32 285.744 1153.32 288.752C1153.32 291.824 1153.77 294.512 1154.67 296.816C1155.63 299.12 1156.94 300.912 1158.6 302.192C1160.27 303.408 1162.22 304.016 1164.46 304.016Z"/>
  </g>
</svg>