<svg width="49" height="50" viewBox="0 0 49 50" fill="none" xmlns="http://www.w3.org/2000/svg">
<path d="M36.7499 27.6888C37.0525 27.6891 37.3483 27.7791 37.5999 27.9473C37.8515 28.1156 38.0475 28.3547 38.1633 28.6343C38.2791 28.9139 38.3094 29.2216 38.2504 29.5185C38.1915 29.8153 38.0458 30.088 37.832 30.3022L25.582 42.5522C25.2949 42.8389 24.9057 43 24.4999 43C24.0941 43 23.7049 42.8389 23.4178 42.5522L11.1678 30.3022C10.9539 30.088 10.8083 29.8153 10.7493 29.5185C10.6904 29.2216 10.7207 28.9139 10.8365 28.6343C10.9522 28.3547 11.1483 28.1156 11.3999 27.9473C11.6514 27.7791 11.9472 27.6891 12.2499 27.6888L36.7499 27.6888Z" fill="#11406E"/>
<path opacity="0.5" fill-rule="evenodd" clip-rule="evenodd" d="M24.5 7.27219C24.0939 7.27219 23.7044 7.43351 23.4172 7.72068C23.1301 8.00784 22.9687 8.39732 22.9687 8.80344L22.9687 27.6889L26.0312 27.6889L26.0312 8.80344C26.0312 7.95819 25.3452 7.27219 24.5 7.27219Z" fill="#11406E"/>
</svg>
