<svg width="36" height="40" viewBox="0 0 36 40" fill="none" xmlns="http://www.w3.org/2000/svg">
<path d="M19.9013 23.8344C19.1179 24.6417 18.186 25.0453 17.1046 25.0453C16.0233 25.0453 15.1056 24.6417 14.3226 23.8344C13.529 23.0295 13.1322 22.0649 13.1322 20.9449C13.1322 20.2107 13.3171 19.5411 13.6846 18.9333C14.0499 18.3148 14.5412 17.8246 15.1565 17.4565C15.7719 17.0908 16.4205 16.9063 17.1051 16.9063C17.7896 16.9063 18.4635 17.0903 19.0683 17.4565C19.6836 17.8246 20.1749 18.3148 20.5424 18.9333C20.9077 19.5411 21.0926 20.2107 21.0926 20.9449C21.0926 22.0649 20.6949 23.0295 19.9013 23.8344Z" fill="url(#paint0_linear_523_4243)"/>
<path d="M36 25.8947C36 31.2237 33.4928 35.1289 28.4829 37.6101C27.5168 38.0825 26.5051 38.4796 25.4468 38.8055C24.9933 38.9474 24.5313 39.0738 24.0591 39.1871C23.8534 39.2138 23.6455 39.2269 23.4335 39.2269C20.5149 39.2269 18.1465 36.7279 18.1465 33.6432C18.1465 31.4808 19.3117 29.605 21.0168 28.6803C21.1006 28.6381 21.1848 28.596 21.2669 28.5515C21.966 28.1835 22.6169 27.711 23.2194 27.1346C24.0529 26.3297 24.6975 25.4073 25.1533 24.3692C25.6091 23.3334 25.8379 22.1914 25.8379 20.9454C25.8379 19.6994 25.6047 18.5948 25.1387 17.5371C24.6811 16.4882 24.0427 15.5723 23.2194 14.7871C22.3859 13.9911 21.4495 13.388 20.4081 12.9797C19.3374 12.5718 18.2348 12.3677 17.1051 12.3677C15.9754 12.3677 14.8879 12.5718 13.8167 12.9797L13.1322 13.2943V6.66354L8.38695 6.679V21.0535C8.39759 22.6456 8.79838 24.0873 9.59199 25.3754C10.1861 26.3578 10.938 27.1805 11.8451 27.8435C11.8473 27.8435 11.8491 27.8477 11.8491 27.8477C13.4071 29.0783 14.417 31.0435 14.417 33.2564C14.417 36.7045 11.9688 39.55 8.80637 39.9536L0 40L0.157391 35.7797H0.148967L1.52869 0H33.3563L33.5642 7.22731L25.3732 13.4123C29.5204 14.2884 32.5272 16.3505 34.3937 19.5992C35.4627 21.4974 36 23.5947 36 25.8947Z" fill="url(#paint1_linear_523_4243)"/>
<path d="M19.9013 22.6404C19.1179 23.4477 18.186 23.8513 17.1046 23.8513C16.0233 23.8513 15.1056 23.4477 14.3226 22.6404C13.6766 21.9853 13.294 21.2249 13.1734 20.361C13.1459 20.5511 13.1322 20.7454 13.1322 20.9449C13.1322 22.0649 13.529 23.0295 14.3226 23.8344C15.106 24.6417 16.0339 25.0453 17.1046 25.0453C18.1753 25.0453 19.1184 24.6417 19.9013 23.8344C20.6949 23.0295 21.0917 22.0654 21.0917 20.9454C21.0917 20.7459 21.0775 20.5511 21.0505 20.361C20.9304 21.2249 20.5473 21.9853 19.9013 22.6404Z" fill="url(#paint2_linear_523_4243)"/>
<path d="M14.4166 33.2573C14.4166 36.7055 11.9684 39.5496 8.80637 39.9536C12.3825 38.0058 13.2811 35.1134 13.2811 32.6973C13.2811 30.2812 12.3638 28.3019 12.3638 28.3019C13.6261 29.5339 14.417 31.2973 14.417 33.2564L14.4166 33.2573Z" fill="url(#paint3_linear_523_4243)"/>
<path d="M23.9882 39.1956C23.8055 39.2171 23.6206 39.2274 23.4327 39.2274C20.5145 39.2274 18.1465 36.7279 18.1465 33.6432C18.1465 31.4808 19.3117 29.605 21.0168 28.6803C21.0971 28.64 21.1769 28.5997 21.2553 28.5571C19.9395 29.6753 19.1037 31.3469 19.1037 33.2152C19.1037 36.1768 21.2044 38.6454 23.9882 39.1956Z" fill="url(#paint4_linear_523_4243)"/>
<defs>
<linearGradient id="paint0_linear_523_4243" x1="87.2201" y1="-86.142" x2="-75.7675" y2="103.546" gradientUnits="userSpaceOnUse">
<stop stop-color="#11406E"/>
<stop offset="1" stop-color="#A3ABB5"/>
</linearGradient>
<linearGradient id="paint1_linear_523_4243" x1="30.8074" y1="-1.89544" x2="-1.83413" y2="39.3886" gradientUnits="userSpaceOnUse">
<stop stop-color="#11406E"/>
<stop offset="1" stop-color="#A3ABB5"/>
</linearGradient>
<linearGradient id="paint2_linear_523_4243" x1="77.4823" y1="-113.087" x2="-85.0297" y2="-28.8399" gradientUnits="userSpaceOnUse">
<stop stop-color="#11406E"/>
<stop offset="1" stop-color="#A3ABB5"/>
</linearGradient>
<linearGradient id="paint3_linear_523_4243" x1="106.415" y1="-37.9249" x2="46.3833" y2="85.9258" gradientUnits="userSpaceOnUse">
<stop offset="0.341346" stop-color="#11406E"/>
<stop offset="1" stop-color="#A3ABB5"/>
</linearGradient>
<linearGradient id="paint4_linear_523_4243" x1="30.1406" y1="21.5007" x2="11.3799" y2="47.5599" gradientUnits="userSpaceOnUse">
<stop stop-color="#11406E"/>
<stop offset="1" stop-color="#A3ABB5"/>
</linearGradient>
</defs>
</svg>
