<svg width="157" height="20" viewBox="0 0 157 20" fill="none" xmlns="http://www.w3.org/2000/svg">
<path d="M0 0.0136054L4.32798 0V5.78426L4.95121 5.50826C5.92837 5.15258 6.9267 4.97376 7.95002 4.97376C8.97335 4.97376 9.98514 5.15258 10.9623 5.50826C11.9125 5.86395 12.7666 6.39067 13.5264 7.08455C14.2766 7.77065 14.8594 8.56948 15.2768 9.48299C15.7019 10.4062 15.9135 11.3975 15.9135 12.4568C15.9135 13.516 15.7058 14.5403 15.2903 15.4461C14.8748 16.3499 14.2862 17.1545 13.5264 17.8581C12.757 18.5617 11.9029 19.0865 10.9623 19.4344C10.0121 19.8095 9.00798 19.9961 7.95002 19.9961C6.56699 19.9961 5.25898 19.6676 4.02983 19.0087C2.80069 18.3596 1.82352 17.4655 1.10027 16.3226C0.375092 15.2012 0.00961774 13.9456 0 12.5559V0.0136054ZM5.41286 14.9815C6.1265 15.6851 6.97286 16.0369 7.95002 16.0369C8.92719 16.0369 9.78509 15.6851 10.5006 14.9815C11.2239 14.2779 11.5855 13.4363 11.5855 12.4587C11.5855 11.8192 11.4182 11.2342 11.0835 10.7036C10.7488 10.1652 10.3006 9.73567 9.74085 9.41497C9.18879 9.09427 8.59249 8.93489 7.95002 8.93489C7.30756 8.93489 6.73434 9.09427 6.17267 9.41497C5.61099 9.73567 5.16473 10.1652 4.83003 10.7036C4.49533 11.2342 4.32798 11.8192 4.32798 12.4587C4.32798 13.4363 4.68961 14.2779 5.41286 14.9815Z" fill="#11406E"/>
<path d="M23.7135 9.17007C23.4865 9.01458 23.1941 8.92711 22.8325 8.90962H22.5882C21.4841 8.95627 20.934 9.73178 20.934 11.24V19.5471H16.5925V11.24C16.5925 7.24587 18.5911 5.14869 22.5882 4.94849H22.8325C23.1307 4.95821 23.425 4.98542 23.7135 5.03013V9.17007Z" fill="#11406E"/>
<path d="M35.9915 19.1351C35.7011 19.2634 35.4895 19.3508 35.3548 19.3955C34.3969 19.7707 33.3928 19.9572 32.3425 19.9572C30.9595 19.9572 29.6515 19.6327 28.4223 18.9835C27.1932 18.3265 26.216 17.4305 25.4928 16.2974C24.7599 15.1467 24.3944 13.862 24.3944 12.4451C24.3944 11.3761 24.606 10.379 25.0311 9.45578C25.4562 8.54227 26.0391 7.74733 26.7816 7.07094C27.5144 6.39456 28.3646 5.87755 29.3322 5.52187C30.2997 5.14674 31.3038 4.96016 32.3445 4.96016C33.3851 4.96016 34.3796 5.14286 35.3567 5.50826C36.3339 5.87366 37.1841 6.39456 37.9074 7.07094C38.6672 7.76482 39.2558 8.55977 39.6713 9.45578C40.0964 10.379 40.3079 11.3741 40.3079 12.4451L40.2945 19.586L35.9934 19.5452V19.1331L35.9915 19.1351ZM29.2206 10.6783C28.8859 11.2187 28.7186 11.8076 28.7186 12.447C28.7186 13.415 29.0802 14.2527 29.8035 14.9563C30.5171 15.6501 31.3635 15.9981 32.3406 15.9981C33.3178 15.9981 34.1757 15.6501 34.8912 14.9563C35.6145 14.2527 35.9761 13.4169 35.9761 12.447C35.9761 11.8076 35.8088 11.2187 35.4741 10.6783C35.1394 10.1399 34.6912 9.7104 34.1314 9.3897C33.5794 9.07872 32.9831 8.92323 32.3406 8.92323C31.6981 8.92323 31.1249 9.07872 30.5633 9.3897C30.0016 9.7104 29.5553 10.1399 29.2206 10.6783Z" fill="#11406E"/>
<path d="M46.9788 8.92323C45.8747 8.96987 45.3246 9.74538 45.3246 11.2536V19.5471H40.9831V11.2536C40.9831 7.25948 42.9817 5.16229 46.9788 4.9621H47.2231C51.2202 5.16424 53.2188 7.26142 53.2188 11.2536V19.5471H48.8774V11.2536C48.8774 9.74538 48.3253 8.96987 47.2231 8.92323H46.9788Z" fill="#11406E"/>
<path d="M69.8113 12.5559C69.8017 13.9456 69.4362 15.2012 68.713 16.3265C67.9897 17.4694 67.0126 18.3635 65.7834 19.0126C64.5523 19.6715 63.2463 20 61.8632 20C60.8053 20 59.8012 19.8134 58.851 19.4383C57.9103 19.0904 57.0563 18.5656 56.2869 17.862C55.5271 17.1584 54.9385 16.3537 54.523 15.45C54.1075 14.5442 53.8997 13.5491 53.8997 12.4606C53.8997 11.3722 54.1113 10.4101 54.5364 9.48688C54.9519 8.57337 55.5348 7.77259 56.2869 7.08844C57.0467 6.39456 57.9007 5.86783 58.851 5.51215C59.8281 5.15646 60.8322 4.97765 61.8632 4.97765C62.8942 4.97765 63.8849 5.15646 64.862 5.51215L65.4853 5.78814V0L69.8133 0.0136054V12.5559H69.8113ZM65.4834 12.4606C65.4834 11.8212 65.316 11.2362 64.9813 10.7055C64.6466 10.1672 64.1984 9.73761 63.6387 9.41691C63.0866 9.09621 62.4942 8.93683 61.8613 8.93683C61.2285 8.93683 60.6322 9.09621 60.0705 9.41691C59.5088 9.73761 59.0625 10.1672 58.7278 10.7055C58.3931 11.2362 58.2258 11.8212 58.2258 12.4606C58.2258 13.4383 58.5874 14.2799 59.3107 14.9835C60.0243 15.6871 60.8745 16.0389 61.8613 16.0389C62.8481 16.0389 63.6829 15.6871 64.3985 14.9835C65.1217 14.2799 65.4834 13.4383 65.4834 12.4606Z" fill="#11406E"/>
<path d="M70.4903 0.0136054L74.8183 0V5.78426L75.4416 5.50826C76.4187 5.15258 77.417 4.97376 78.4404 4.97376C79.4637 4.97376 80.4755 5.15258 81.4526 5.50826C82.4029 5.86395 83.2569 6.39067 84.0167 7.08455C84.7669 7.77065 85.3497 8.56948 85.7672 9.48299C86.1923 10.4062 86.4039 11.3975 86.4039 12.4568C86.4039 13.516 86.1961 14.5403 85.7806 15.4461C85.3651 16.3499 84.7765 17.1545 84.0167 17.8581C83.2473 18.5617 82.3933 19.0865 81.4526 19.4344C80.5024 19.8095 79.4983 19.9961 78.4404 19.9961C77.0573 19.9961 75.7493 19.6676 74.5202 19.0087C73.291 18.3596 72.3139 17.4655 71.5906 16.3226C70.8674 15.1992 70.5 13.9417 70.4923 12.552V0.0136054H70.4903ZM75.9032 14.9815C76.6168 15.6851 77.4632 16.0369 78.4404 16.0369C79.4175 16.0369 80.2754 15.6851 80.991 14.9815C81.7142 14.2779 82.0759 13.4363 82.0759 12.4587C82.0759 11.8192 81.9085 11.2342 81.5738 10.7036C81.2391 10.1652 80.7909 9.73567 80.2312 9.41497C79.6791 9.09427 79.0828 8.93489 78.4404 8.93489C77.7979 8.93489 77.2247 9.09427 76.663 9.41497C76.1013 9.73567 75.6551 10.1652 75.3204 10.7036C74.9857 11.2342 74.8183 11.8192 74.8183 12.4587C74.8183 13.4363 75.18 14.2779 75.9032 14.9815Z" fill="#A3ABB5"/>
<path d="M91.1108 19.0126C89.8816 18.3557 88.9045 17.4538 88.1812 16.3129C87.4483 15.1623 87.0829 13.8737 87.0829 12.447C87.0829 11.378 87.2945 10.381 87.7196 9.45773C88.1447 8.5345 88.7275 7.73567 89.47 7.05928C90.2202 6.37318 91.0762 5.8484 92.0341 5.48299C93.0112 5.11759 94.0096 4.93489 95.0329 4.93489C96.0562 4.93489 97.068 5.11759 98.0452 5.48299C98.9954 5.8309 99.8495 6.3518 100.609 7.04568C101.359 7.73955 101.942 8.54422 102.36 9.45773C102.785 10.381 102.996 11.3761 102.996 12.447C102.996 13.518 102.789 14.5306 102.373 15.4344C101.958 16.3479 101.369 17.1565 100.609 17.8601C99.8398 18.5539 98.9858 19.0807 98.0452 19.4363C97.0949 19.8115 96.0908 19.9981 95.0329 19.9981C93.6499 19.9981 92.3418 19.6696 91.1127 19.0107L91.1108 19.0126ZM92.4938 14.9679C93.2074 15.6715 94.0538 16.0233 95.031 16.0233C96.0081 16.0233 96.866 15.6715 97.5816 14.9679C98.3048 14.2643 98.6665 13.4227 98.6665 12.4451C98.6665 11.8056 98.4991 11.2167 98.1644 10.6764C97.8297 10.138 97.3815 9.70846 96.8218 9.38776C96.2697 9.06706 95.6734 8.90768 95.031 8.90768C94.3885 8.90768 93.8153 9.06706 93.2536 9.38776C92.6919 9.70846 92.2457 10.138 91.911 10.6764C91.5763 11.2167 91.4089 11.8056 91.4089 12.4451C91.4089 13.4227 91.7706 14.2643 92.4938 14.9679Z" fill="#A3ABB5"/>
<path d="M109.669 15.9961H109.913C111.018 15.9592 111.568 15.1876 111.568 13.6793V5.5102H115.909V13.6793C115.909 17.654 113.911 19.7512 109.913 19.9708H109.669C105.672 19.7512 103.673 17.654 103.673 13.6793V5.5102H108.015V13.6793C108.015 15.1876 108.567 15.9592 109.669 15.9961Z" fill="#A3ABB5"/>
<path d="M122.584 8.92323C121.48 8.96987 120.93 9.74538 120.93 11.2536V19.5471H116.588V11.2536C116.588 7.25948 118.587 5.16229 122.584 4.9621H122.828C126.825 5.16424 128.824 7.26142 128.824 11.2536V19.5471H124.482V11.2536C124.482 9.74538 123.93 8.96987 122.828 8.92323H122.584Z" fill="#A3ABB5"/>
<path d="M140.192 9.74538C139.803 9.41691 139.378 9.17007 138.917 9.00486C138.438 8.83965 137.93 8.75802 137.397 8.75802C136.403 8.75802 135.56 9.08261 134.873 9.73178C134.177 10.381 133.829 11.1856 133.829 12.1438C133.829 12.8941 133.979 13.5646 134.277 14.1594C134.566 14.7541 134.997 15.2245 135.566 15.5705C136.118 15.9261 136.755 16.105 137.478 16.105C138.545 16.105 139.459 15.7629 140.219 15.0768L142.593 18.1205C142.248 18.4859 141.769 18.8105 141.154 19.0943C140.531 19.378 139.888 19.588 139.228 19.724C138.569 19.862 137.957 19.93 137.397 19.93C135.824 19.93 134.435 19.5957 133.233 18.9291C132.03 18.2527 131.107 17.3664 130.465 16.2702C129.822 15.1545 129.501 13.9631 129.501 12.6919C129.501 11.5316 129.695 10.4801 130.084 9.53936C130.482 8.5792 131.028 7.75705 131.725 7.07289C132.411 6.40622 133.248 5.87949 134.235 5.4966C135.212 5.12148 136.264 4.93489 137.395 4.93489C138.319 4.93489 139.217 5.08066 140.094 5.37415C140.981 5.67541 141.762 6.10107 142.441 6.64917L140.188 9.74733L140.192 9.74538Z" fill="#A3ABB5"/>
<path d="M156.39 9.47133C156.798 10.3946 157 11.3819 157 12.4315V12.5539C157 12.6006 156.996 12.6492 156.987 12.7055L156.96 12.9388H155.276V12.966H145.943C146.051 13.7337 146.382 14.3965 146.934 14.9543C147.63 15.6482 148.444 15.9961 149.375 15.9961C150.306 15.9961 151.129 15.6482 151.816 14.9543L151.843 14.9271L151.883 14.8727L151.924 14.8319L151.951 14.7911L154.284 18.1633C153.615 18.7114 152.936 19.1273 152.249 19.4111C151.326 19.7765 150.368 19.9592 149.373 19.9592C148.025 19.9592 146.772 19.6346 145.615 18.9854C144.43 18.3285 143.493 17.4266 142.806 16.2857C142.1 15.1429 141.748 13.8601 141.748 12.4334C141.748 11.3644 141.952 10.3771 142.358 9.47328C142.766 8.55977 143.325 7.76482 144.041 7.08844C144.764 6.39456 145.578 5.86783 146.482 5.51215C147.413 5.14674 148.377 4.96404 149.371 4.96404C150.366 4.96404 151.326 5.14674 152.247 5.51215C153.161 5.86783 153.978 6.38873 154.703 7.07483C155.417 7.7415 155.979 8.54228 156.386 9.47328L156.39 9.47133ZM149.377 8.92323C148.771 8.92323 148.202 9.07872 147.667 9.3897C147.342 9.58989 147.024 9.87366 146.717 10.2391H152.035C151.728 9.87366 151.412 9.58989 151.085 9.3897C150.552 9.07872 149.981 8.92323 149.375 8.92323H149.377Z" fill="#A3ABB5"/>
</svg>
